<svg width="69" height="69" viewBox="0 0 69 69" fill="none" xmlns="http://www.w3.org/2000/svg">
<g id="Group">
<path id="Vector" d="M34.086 0C15.2615 0 0 15.2599 0 34.086C0 52.9121 15.2599 68.172 34.086 68.172C52.9121 68.172 68.172 52.9105 68.172 34.086C68.172 15.2615 52.9105 0 34.086 0ZM34.086 61.8866C18.7565 61.8866 6.28536 49.4155 6.28536 34.086C6.28536 18.7565 18.7565 6.28536 34.086 6.28536C49.4155 6.28536 61.8867 18.7565 61.8867 34.086C61.8867 49.4155 49.4155 61.8866 34.086 61.8866Z" fill="white"/>
<path id="Vector_2" d="M37.2856 30.8867H30.8865V37.2858H37.2856V30.8867Z" fill="white"/>
<path id="Vector_3" d="M37.2856 20.7832H30.8865V27.1823H37.2856V20.7832Z" fill="white"/>
<path id="Vector_4" d="M37.2856 10.6836H30.8865V17.0827H37.2856V10.6836Z" fill="white"/>
</g>
</svg>
